# xmcd
#
# Track frame offsets:
#	182
#	11807
#	24995
#	39507
#	53820
#	66520
#	79170
#	92195
#	103357
#	116682
#	129757
#	143145
#	153420
#	164957
#
# Disc length: 2356 seconds
# Revision: 1
# Processed by: cddbd v1.5.2PL0 Copyright (c) Steve Scherf et al.
# Submitted via: dBpowerAMP V12.0
#
DISCID=c309320e
DTITLE=Fender, Freddy - The Great Freddy Fender
DYEAR=1900
DGENRE=country
TTITLE0=Before The Next Teardrop Falls
TTITLE1=Wasted Days And Wasted Nights
TTITLE2=Since I Met You Baby
TTITLE3=Wild Side Of Life
TTITLE4=Almost Persuaded
TTITLE5=Enter My Heart
TTITLE6=Silver Wings
TTITLE7=Mathilda
TTITLE8=Mean Woman
TTITLE9=Going Out With The Tide
TTITLE10=Just Because
TTITLE11=Crazy Baby
TTITLE12=I´m Leaving It All Up To You
TTITLE13=Sweet Summer Day
EXTD=
EXTT0=
EXTT1=
EXTT2=
EXTT3=
EXTT4=
EXTT5=
EXTT6=
EXTT7=
EXTT8=
EXTT9=
EXTT10=
EXTT11=
EXTT12=
EXTT13=
PLAYORDER=
